<svg width="512" height="512" viewBox="0 0 512 512" fill="none" xmlns="http://www.w3.org/2000/svg">
<path d="M512 256C512 397.385 397.385 512 256 512C114.615 512 0 397.385 0 256C0 114.615 114.615 0 256 0C397.385 0 512 114.615 512 256Z" fill="#5048E5"/>
<path d="M486.8 256.4C486.8 286.657 480.841 316.617 469.262 344.57C457.683 372.524 440.712 397.923 419.317 419.317C397.923 440.712 372.524 457.683 344.57 469.262C316.617 480.841 286.657 486.8 256.4 486.8C226.143 486.8 196.183 480.841 168.23 469.262C140.276 457.683 114.877 440.712 93.4826 419.317C72.088 397.923 55.1168 372.524 43.5381 344.57C31.9595 316.617 26 286.657 26 256.4L486.8 256.4Z" fill="#463ACB"/>
</svg>
